<?xml version="1.0" encoding="utf-8"?>
<!-- Generator: Adobe Illustrator 17.0.2, SVG Export Plug-In . SVG Version: 6.00 Build 0)  -->
<!DOCTYPE svg PUBLIC "-//W3C//DTD SVG 1.1//EN" "http://www.w3.org/Graphics/SVG/1.1/DTD/svg11.dtd">
<svg version="1.1" xmlns="http://www.w3.org/2000/svg" xmlns:xlink="http://www.w3.org/1999/xlink" x="0px" y="0px" width="54px"
	 height="50px" viewBox="0 0 54 50" enable-background="new 0 0 54 50" xml:space="preserve">
<g id="Layer_1">
	<rect fill="#2892D0" width="54" height="50"/>
</g>
<g id="Layer_2">
	<g>
		<path fill="#C6E3F2" d="M48.532,33.967c0,5.5-4.5,10-10,10h-23.42c-5.5,0-10-4.5-10-10V15.641c0-5.5,4.5-10,10-10h23.42
			c5.5,0,10,4.5,10,10V33.967z"/>
	</g>
</g>
<g id="Layer_3">
	<g>
		<path fill="#2892D0" d="M30.888,20.854l-0.652,6.179h-4.94v17.93h-7.419v-17.93h-3.699v-6.179h3.699v-3.721
			c0-5.026,2.089-8.029,8.029-8.029h4.939v6.18h-3.089c-2.307,0-2.459,0.87-2.459,2.48v3.09H30.888z"/>
	</g>
</g>
</svg>
