<?xml version="1.0" encoding="utf-8"?>
<!-- Generator: Adobe Illustrator 17.0.2, SVG Export Plug-In . SVG Version: 6.00 Build 0)  -->
<!DOCTYPE svg PUBLIC "-//W3C//DTD SVG 1.1//EN" "http://www.w3.org/Graphics/SVG/1.1/DTD/svg11.dtd">
<svg version="1.1" xmlns="http://www.w3.org/2000/svg" xmlns:xlink="http://www.w3.org/1999/xlink" x="0px" y="0px" width="880px"
	 height="109px" viewBox="0 0 880 109" enable-background="new 0 0 880 109" xml:space="preserve">
<g id="Layer_1">
	<g>
		<path fill="#2892D0" d="M865.552,94.035c0,5.5-4.5,10-10,10H33.264c-5.5,0-10-4.5-10-10V14.532c0-5.5,4.5-10,10-10h822.289
			c5.5,0,10,4.5,10,10V94.035z"/>
		<path fill="none" stroke="#2892D0" stroke-miterlimit="10" d="M865.552,94.035c0,5.5-4.5,10-10,10H33.264c-5.5,0-10-4.5-10-10
			V14.532c0-5.5,4.5-10,10-10h822.289c5.5,0,10,4.5,10,10V94.035z"/>
	</g>
</g>
<g id="Layer_2">
	<text transform="matrix(1 0 0 1 204.8556 77.2635)" fill="#FFFFFF" font-family="'ProximaNova-Regular'" font-size="77">Free to Join Us</text>
</g>
</svg>
