<?xml version="1.0" encoding="utf-8"?>
<!-- Generator: Adobe Illustrator 17.0.2, SVG Export Plug-In . SVG Version: 6.00 Build 0)  -->
<!DOCTYPE svg PUBLIC "-//W3C//DTD SVG 1.1//EN" "http://www.w3.org/Graphics/SVG/1.1/DTD/svg11.dtd">
<svg version="1.1" id="Layer_1" xmlns="http://www.w3.org/2000/svg" xmlns:xlink="http://www.w3.org/1999/xlink" x="0px" y="0px"
	 width="259.162px" height="163.553px" viewBox="0 0 259.162 163.553" enable-background="new 0 0 259.162 163.553"
	 xml:space="preserve">
<g>
	<rect x="1.5" y="1.5" fill="#FFFFFF" width="256.162" height="160.553"/>
	<path fill="#2892D0" d="M259.162,163.553H0V0h259.162V163.553z M3,160.553h253.162V3H3V160.553z"/>
</g>
<g>
	<path fill="#2892D0" d="M32.977,118.077l13.993-63.89L29.149,69.104l-8.316-11.22l33.925-27.853h16.369l-19.405,88.046
		C51.722,118.077,32.977,118.077,32.977,118.077z"/>
	<path fill="#2892D0" d="M69.144,118.077l19.405-88.046h62.305l-3.695,16.5h-43.43l-4.092,18.612h42.505l-3.696,16.5H95.941
		l-8.052,36.433L69.144,118.077L69.144,118.077z"/>
	<path fill="#2892D0" d="M203.125,118.077l-15.972-31.285l-28.249,31.285h-23.497l42.373-46.333l-20.988-41.713h21.253
		l14.388,29.173l25.741-29.173h23.629l-39.997,43.957l22.572,44.089C224.378,118.077,203.125,118.077,203.125,118.077z"/>
</g>
<polyline fill="#2892D0" points="31.815,125.098 29.384,136.153 210.284,125.098 "/>
<g>
	<path fill="#2892D0" d="M11.025,187.367l2.023-2.392c1.058,1.426,3.059,2.392,5.174,2.392c1.633,0,2.3-0.966,2.3-1.748
		c0-2.139-7.451-1.816-7.451-6.255c0-2.529,2.208-4.989,6.002-4.989c2.438,0,4.737,0.896,6.094,2.483l-2.024,2.3
		c-1.149-1.334-3.012-1.955-4.576-1.955c-1.173,0-2.047,0.736-2.047,1.563c0,1.978,7.497,1.771,7.497,6.209
		c0,2.828-2.253,5.243-6.048,5.243C14.957,190.219,12.313,189.046,11.025,187.367z"/>
	<path fill="#2892D0" d="M25.492,185.229c0-3.61,2.713-6.669,6.416-6.669c2.828,0,4.99,1.863,4.99,4.967
		c0,0.645-0.115,1.426-0.23,1.794h-8.255c0,0.046,0,0.207,0,0.276c0,0.942,0.989,2.299,3.035,2.299c0.966,0,2.116-0.299,2.805-0.827
		l0.92,2c-1.081,0.736-2.552,1.15-3.932,1.15C27.746,190.219,25.492,188.333,25.492,185.229z M34.276,183.343
		c0-0.046,0-0.184,0-0.229c0-1.104-0.782-2.23-2.552-2.23c-1.563,0-2.759,1.241-3.012,2.46h5.564V183.343z"/>
	<path fill="#2892D0" d="M38.211,185.159c0-3.656,2.805-6.6,6.461-6.6c2.276,0,3.748,0.92,4.507,2.185l-2.185,1.679
		c-0.459-0.781-1.311-1.265-2.322-1.265c-2.093,0-3.495,1.771-3.495,3.863c0,1.679,1.242,2.599,2.782,2.599
		c0.943,0,1.771-0.46,2.323-1.104l1.586,1.954c-0.828,0.874-2.253,1.748-4.208,1.748C40.349,190.219,38.211,188.194,38.211,185.159z
		"/>
	<path fill="#2892D0" d="M54.632,178.836l-1.495,6.691c-0.046,0.207-0.092,0.46-0.092,0.667c0,1.012,0.828,1.426,1.863,1.426
		s2-0.69,2.645-1.311l1.655-7.474h2.92l-2.46,11.106h-2.92l0.322-1.448c-0.874,0.827-2.07,1.725-3.702,1.725
		c-2.139,0-3.473-1.127-3.473-2.852c0-0.185,0.069-0.69,0.115-0.897l1.679-7.634h2.943V178.836z"/>
	<path fill="#2892D0" d="M62.568,189.942l2.46-11.106h2.92l-0.345,1.448c0.989-1.058,2.185-1.725,3.955-1.725l-0.644,2.897
		c-0.184-0.046-0.598-0.138-1.058-0.138c-1.081,0-2.116,0.598-2.76,1.334l-1.609,7.289h-2.919V189.942z"/>
	<path fill="#2892D0" d="M71.284,185.229c0-3.61,2.713-6.669,6.416-6.669c2.828,0,4.99,1.863,4.99,4.967
		c0,0.645-0.115,1.426-0.23,1.794h-8.255c0,0.046,0,0.207,0,0.276c0,0.942,0.989,2.299,3.035,2.299c0.966,0,2.116-0.299,2.805-0.827
		l0.92,2c-1.081,0.736-2.552,1.15-3.932,1.15C73.538,190.219,71.284,188.333,71.284,185.229z M80.068,183.343
		c0-0.046,0-0.184,0-0.229c0-1.104-0.782-2.23-2.552-2.23c-1.563,0-2.759,1.241-3.012,2.46h5.564V183.343z"/>
	<path fill="#2892D0" d="M93.362,180.308l1.242-5.703h2.943l-3.403,15.338h-2.943l0.322-1.38c-0.943,1.104-2,1.656-3.334,1.656
		c-2.53,0-4.231-1.656-4.231-4.6c0-3.357,2.07-7.06,5.864-7.06C91.292,178.56,92.626,179.204,93.362,180.308z M87.016,185.022
		c0,1.587,1.058,2.599,2.46,2.599c1.035,0,1.955-0.552,2.552-1.311l0.851-3.863c-0.483-0.736-1.426-1.288-2.599-1.288
		C88.372,181.158,87.016,182.975,87.016,185.022z"/>
	<path fill="#2892D0" d="M116.338,189.942l2.438-11.061l-6.76,11.061h-1.426l-1.886-11.061l-2.438,11.061h-3.265l3.38-15.338h4.461
		l1.587,9.589l5.863-9.589h4.714l-3.38,15.338H116.338z"/>
	<path fill="#2892D0" d="M123.011,185.183c0-3.473,2.667-6.623,6.415-6.623c3.541,0,5.519,2.162,5.519,5.06
		c0,3.449-2.667,6.6-6.438,6.6C124.966,190.219,123.011,188.08,123.011,185.183z M131.91,183.757c0-1.609-0.966-2.599-2.575-2.599
		c-1.977,0-3.311,1.886-3.311,3.863c0,1.609,0.966,2.599,2.599,2.599C130.576,187.62,131.91,185.757,131.91,183.757z"/>
	<path fill="#2892D0" d="M139.04,188.471l-0.322,1.472h-2.92l3.38-15.338h2.921l-1.242,5.611c0.943-1.104,2.023-1.656,3.357-1.656
		c2.483,0,4.208,1.656,4.208,4.6c0,3.334-2.069,7.06-5.841,7.06C141.064,190.219,139.777,189.574,139.04,188.471z M145.364,183.757
		c0-1.587-1.058-2.599-2.46-2.599c-1.035,0-1.932,0.575-2.553,1.334l-0.851,3.863c0.482,0.735,1.426,1.265,2.599,1.265
		C144.031,187.62,145.364,185.804,145.364,183.757z"/>
	<path fill="#2892D0" d="M149.276,189.942l2.46-11.106h2.921l-2.461,11.106H149.276z M152.058,176.146
		c0-1.265,1.081-1.978,1.955-1.978c0.919,0,1.586,0.667,1.586,1.494c0,1.265-1.08,1.978-1.978,1.978
		C152.725,177.64,152.058,176.974,152.058,176.146z"/>
	<path fill="#2892D0" d="M155.095,189.942l3.38-15.338h2.921l-3.381,15.338H155.095z"/>
	<path fill="#2892D0" d="M161.35,185.229c0-3.61,2.714-6.669,6.416-6.669c2.828,0,4.99,1.863,4.99,4.967
		c0,0.645-0.115,1.426-0.23,1.794h-8.255c0,0.046,0,0.207,0,0.276c0,0.942,0.988,2.299,3.035,2.299c0.966,0,2.115-0.299,2.806-0.827
		l0.92,2c-1.081,0.736-2.553,1.15-3.933,1.15C163.604,190.219,161.35,188.333,161.35,185.229z M170.134,183.343
		c0-0.046,0-0.184,0-0.229c0-1.104-0.781-2.23-2.552-2.23c-1.564,0-2.76,1.241-3.013,2.46h5.565V183.343z"/>
	<path fill="#2892D0" d="M191.317,189.942l-0.367-10.531l-4.99,10.531h-3.473l-1.012-15.338h3.588l0.229,11.084l5.358-11.084h2.552
		l0.46,11.084l5.128-11.084h3.748l-7.749,15.338H191.317z"/>
	<path fill="#2892D0" d="M209.51,180.308l0.299-1.472h2.943l-2.461,11.106h-2.943l0.322-1.38c-0.942,1.104-2,1.656-3.334,1.656
		c-2.529,0-4.231-1.656-4.231-4.6c0-3.357,2.069-7.06,5.864-7.06C207.441,178.56,208.774,179.204,209.51,180.308z M203.163,185.022
		c0,1.587,1.058,2.599,2.46,2.599c1.035,0,1.955-0.552,2.553-1.311l0.851-3.863c-0.482-0.736-1.426-1.288-2.598-1.288
		C204.52,181.158,203.163,182.975,203.163,185.022z"/>
	<path fill="#2892D0" d="M213.193,189.942l3.38-15.338h2.921l-3.381,15.338H213.193z"/>
	<path fill="#2892D0" d="M219.011,189.942l3.38-15.338h2.921l-3.381,15.338H219.011z"/>
	<path fill="#2892D0" d="M225.267,185.229c0-3.61,2.714-6.669,6.416-6.669c2.828,0,4.99,1.863,4.99,4.967
		c0,0.645-0.115,1.426-0.23,1.794h-8.255c0,0.046,0,0.207,0,0.276c0,0.942,0.988,2.299,3.035,2.299c0.966,0,2.115-0.299,2.806-0.827
		l0.92,2c-1.081,0.736-2.553,1.15-3.933,1.15C227.521,190.219,225.267,188.333,225.267,185.229z M234.051,183.343
		c0-0.046,0-0.184,0-0.229c0-1.104-0.781-2.23-2.552-2.23c-1.564,0-2.76,1.241-3.013,2.46h5.565V183.343z"/>
	<path fill="#2892D0" d="M238.699,187.804c0-0.161,0.023-0.482,0.092-0.759l1.242-5.68h-1.84l0.575-2.529h1.84l0.667-3.035h2.943
		l-0.667,3.035h2.253l-0.598,2.529h-2.254l-1.058,4.829c-0.022,0.138-0.046,0.322-0.046,0.46c0,0.598,0.345,0.966,1.081,0.966
		c0.299,0,0.667-0.115,0.805-0.23l0.115,2.346c-0.438,0.299-1.127,0.483-1.84,0.483C240.033,190.219,238.699,189.46,238.699,187.804
		z"/>
</g>
</svg>
