<?xml version="1.0" encoding="utf-8"?>
<!-- Generator: Adobe Illustrator 17.1.0, SVG Export Plug-In . SVG Version: 6.00 Build 0)  -->
<!DOCTYPE svg PUBLIC "-//W3C//DTD SVG 1.1//EN" "http://www.w3.org/Graphics/SVG/1.1/DTD/svg11.dtd">
<svg version="1.1" xmlns="http://www.w3.org/2000/svg" xmlns:xlink="http://www.w3.org/1999/xlink" x="0px" y="0px"
	 viewBox="0 0 94 45" enable-background="new 0 0 94 45" xml:space="preserve">
<g id="Layer_1" display="none">
</g>
<g id="Layer_4" display="none">
	<rect display="inline" fill="#2892D0" width="94" height="45"/>
</g>
<g id="Layer_2">
	<g>
		<path fill="#FFFFFF" d="M13.6,33.9l4.8-21.8l-6.1,5.1l-2.8-3.8L21,3.9h5.6l-6.6,30H13.6z"/>
		<path fill="#FFFFFF" d="M25.9,33.9l6.6-30h21.2l-1.3,5.6H37.7l-1.4,6.3h14.5l-1.3,5.6H35l-2.7,12.4H25.9z"/>
		<path fill="#FFFFFF" d="M71.6,33.9l-5.4-10.7l-9.6,10.7h-8l14.4-15.8L55.8,3.9H63l4.9,9.9l8.8-9.9h8.1l-13.6,15l7.7,15H71.6z"/>
	</g>
</g>
<g id="Layer_3">
	<polygon fill="#FFFFFF" points="13.1,36.5 12,40.9 73.2,36.5 	"/>
	<path fill="#2892D0" stroke="#00AEEF" stroke-miterlimit="10" d="M6.3,48.9"/>
</g>
</svg>
