<?xml version="1.0" encoding="utf-8"?>
<!-- Generator: Adobe Illustrator 17.0.2, SVG Export Plug-In . SVG Version: 6.00 Build 0)  -->
<!DOCTYPE svg PUBLIC "-//W3C//DTD SVG 1.1//EN" "http://www.w3.org/Graphics/SVG/1.1/DTD/svg11.dtd">
<svg version="1.1" xmlns="http://www.w3.org/2000/svg" xmlns:xlink="http://www.w3.org/1999/xlink" x="0px" y="0px" width="229px"
	 height="131px" viewBox="0 0 229 131" enable-background="new 0 0 229 131" xml:space="preserve">
<g id="Layer_1">
	<rect fill="#2892D0" stroke="#2892D0" stroke-miterlimit="10" width="229" height="131"/>
</g>
<g id="Layer_2" display="none">
	
		<rect x="9.509" y="8.421" display="inline" fill="#2892D0" stroke="#FFFFFF" stroke-width="1.5" stroke-miterlimit="10" width="208.333" height="114.937"/>
</g>
<g id="Layer_3">
	<g>
		<path fill="#FFFFFF" d="M36.301,92.384l11.341-51.786L33.198,52.688l-6.741-9.095l27.498-22.576h13.268L51.494,92.384H36.301z"/>
		<path fill="#FFFFFF" d="M65.619,92.384l15.728-71.366h50.501l-2.996,13.374H93.651l-3.317,15.086h34.453l-2.996,13.374H87.339
			l-6.527,29.531H65.619z"/>
		<path fill="#FFFFFF" d="M174.222,92.384l-12.947-25.358l-22.896,25.358h-19.045l34.346-37.556l-17.013-33.81h17.227l11.662,23.646
			l20.864-23.646h19.151l-32.419,35.629l18.296,35.737H174.222z"/>
	</g>
</g>
<g id="Layer_4">
	<polygon fill="#FFFFFF" points="32.811,107.748 34.855,98.785 179.351,98.785 	"/>
</g>
</svg>
