<?xml version="1.0" encoding="utf-8"?>
<!-- Generator: Adobe Illustrator 17.0.2, SVG Export Plug-In . SVG Version: 6.00 Build 0)  -->
<!DOCTYPE svg PUBLIC "-//W3C//DTD SVG 1.1//EN" "http://www.w3.org/Graphics/SVG/1.1/DTD/svg11.dtd">
<svg version="1.1" xmlns="http://www.w3.org/2000/svg" xmlns:xlink="http://www.w3.org/1999/xlink" x="0px" y="0px" width="54px"
	 height="50px" viewBox="0 0 54 50" enable-background="new 0 0 54 50" xml:space="preserve">
<g id="Layer_1">
	<rect fill="#2892D0" width="54" height="50"/>
</g>
<g id="Layer_2">
	<g>
		<path fill="#C6E3F2" d="M48.532,33.967c0,5.5-4.5,10-10,10h-23.42c-5.5,0-10-4.5-10-10V15.641c0-5.5,4.5-10,10-10h23.42
			c5.5,0,10,4.5,10,10V33.967z"/>
	</g>
</g>
<g id="Layer_3">
	<g>
		<path fill="#2892D0" d="M40.019,23.36c0.021,0.305,0.021,0.609,0.021,0.914c0,9.291-7.071,19.997-19.996,19.997
			c-3.982,0-7.681-1.153-10.792-3.155c0.565,0.065,1.109,0.087,1.697,0.087c3.286,0,6.31-1.109,8.725-3.002
			c-3.09-0.065-5.679-2.09-6.571-4.875c0.436,0.065,0.871,0.109,1.328,0.109c0.631,0,1.262-0.087,1.849-0.239
			c-3.22-0.653-5.635-3.481-5.635-6.898c0-0.021,0-0.064,0-0.087c0.936,0.522,2.023,0.849,3.177,0.893
			c-1.893-1.262-3.133-3.416-3.133-5.853c0-1.306,0.348-2.502,0.958-3.547c3.459,4.265,8.66,7.05,14.492,7.354
			c-0.109-0.522-0.175-1.066-0.175-1.61c0-3.873,3.134-7.028,7.028-7.028c2.023,0,3.852,0.849,5.136,2.219
			c1.588-0.304,3.111-0.892,4.46-1.697c-0.521,1.632-1.632,3.002-3.09,3.873c1.415-0.152,2.785-0.544,4.048-1.088
			C42.586,21.119,41.39,22.359,40.019,23.36z"/>
	</g>
</g>
</svg>
